<svg width="35" height="35" viewBox="0 0 35 35" fill="none" xmlns="http://www.w3.org/2000/svg">
<path d="M17.5 6.56252C15.7088 6.56201 13.9449 7.00142 12.3632 7.84214C10.7816 8.68287 9.43066 9.89916 8.42909 11.3842C7.42752 12.8692 6.80599 14.5774 6.6191 16.3588C6.43222 18.1403 6.6857 19.9403 7.35728 21.6009C7.39328 21.6896 7.41145 21.7846 7.41074 21.8804C7.41004 21.9762 7.39047 22.0709 7.35316 22.1591C7.31586 22.2473 7.26154 22.3274 7.19331 22.3946C7.12508 22.4618 7.04427 22.5149 6.95551 22.551C6.86674 22.587 6.77175 22.6051 6.67597 22.6044C6.58018 22.6037 6.48547 22.5842 6.39724 22.5468C6.30902 22.5095 6.22901 22.4552 6.16177 22.387C6.09454 22.3188 6.04141 22.2379 6.0054 22.1492C4.93377 19.4988 4.81118 16.5595 5.65841 13.8291C6.50563 11.0986 8.27059 8.745 10.6543 7.16679C13.0381 5.58858 15.894 4.88282 18.7385 5.16906C21.583 5.45529 24.2411 6.71592 26.2626 8.73743C28.2841 10.7589 29.5447 13.417 29.8309 16.2615C30.1172 19.106 29.4114 21.9619 27.8332 24.3457C26.255 26.7294 23.9014 28.4944 21.1709 29.3416C18.4405 30.1888 15.5012 30.0662 12.8508 28.9946C12.6728 28.9212 12.5311 28.7804 12.4566 28.6029C12.382 28.4253 12.3807 28.2256 12.4529 28.0471C12.5251 27.8686 12.6649 27.7259 12.8419 27.6502C13.0189 27.5744 13.2187 27.5717 13.3977 27.6427C14.8932 28.2462 16.5036 28.5116 18.1137 28.4198C19.7237 28.3279 21.2935 27.8812 22.7107 27.1116C24.1279 26.342 25.3573 25.2685 26.311 23.968C27.2647 22.6675 27.9189 21.1723 28.227 19.5893C28.535 18.0063 28.4892 16.3748 28.0929 14.8116C27.6965 13.2484 26.9593 11.7922 25.9342 10.5473C24.909 9.30241 23.6213 8.2996 22.1632 7.6107C20.7051 6.9218 19.1127 6.56386 17.5 6.56252Z" fill="black"/>
<path d="M9.47916 17.5C9.47916 19.4527 10.1762 21.2421 11.3356 22.6333L10.6356 23.3333H8.41458C7.83462 23.3339 7.27859 23.5647 6.86875 23.975L4.48 26.3623C4.32723 26.5153 4.22321 26.7101 4.18109 26.9221C4.13897 27.1341 4.16062 27.3539 4.24333 27.5536C4.32603 27.7534 4.46607 27.9241 4.64576 28.0443C4.82545 28.1645 5.03673 28.2288 5.25291 28.229H6.76958V29.7456C6.76977 29.9618 6.83402 30.1731 6.95422 30.3528C7.07441 30.5325 7.24516 30.6725 7.4449 30.7552C7.64464 30.8379 7.86441 30.8596 8.07645 30.8175C8.28849 30.7753 8.48329 30.6713 8.63625 30.5186L11.0235 28.1298C11.4341 27.7206 11.6654 27.1651 11.6667 26.5854V24.3658L12.3667 23.6658C13.7684 24.8334 15.5262 25.4882 17.3502 25.5223C19.1741 25.5564 20.9552 24.9676 22.3995 23.8533C23.8439 22.7389 24.8652 21.1655 25.295 19.3926C25.7248 17.6197 25.5374 15.7532 24.7638 14.1012C23.9901 12.4491 22.6764 11.1101 21.0393 10.3051C19.4022 9.50014 17.5397 9.27726 15.7589 9.67325C13.9782 10.0692 12.3856 11.0604 11.2439 12.4833C10.1023 13.9062 9.47981 15.6757 9.47916 17.5ZM17.5 10.9375C18.5482 10.9379 19.5811 11.1893 20.5122 11.6708C21.4433 12.1522 22.2455 12.8497 22.8516 13.7049C23.4578 14.56 23.8504 15.5479 23.9964 16.5859C24.1424 17.6239 24.0376 18.6818 23.6908 19.671C23.3441 20.6602 22.7654 21.5519 22.0033 22.2715C21.2411 22.9912 20.3177 23.5178 19.3103 23.8073C18.3028 24.0968 17.2407 24.1407 16.2128 23.9355C15.1849 23.7302 14.2211 23.2817 13.4021 22.6275L16.0169 20.0127C16.6284 20.3733 17.3504 20.4984 18.0476 20.3647C18.7448 20.231 19.3693 19.8476 19.8041 19.2864C20.2388 18.7252 20.4539 18.0247 20.4091 17.3162C20.3643 16.6077 20.0627 15.9399 19.5607 15.4379C19.0587 14.9359 18.3909 14.6342 17.6824 14.5894C16.9739 14.5446 16.2734 14.7597 15.7121 15.1945C15.1509 15.6292 14.7675 16.2537 14.6338 16.9509C14.5001 17.6481 14.6253 18.3702 14.9858 18.9817L12.3725 21.5965C11.601 20.631 11.1179 19.4672 10.9787 18.2392C10.8395 17.0112 11.0499 15.7689 11.5856 14.6552C12.1214 13.5415 12.9607 12.6017 14.007 11.944C15.0534 11.2863 16.2641 10.9374 17.5 10.9375ZM7.89979 25.0046C7.96763 24.9369 8.04814 24.8833 8.13672 24.8468C8.22531 24.8102 8.32022 24.7915 8.41604 24.7917H10.2083V26.584C10.2079 26.7772 10.1308 26.9623 9.99396 27.0988L8.22937 28.8633V27.4998C8.22937 27.3064 8.15255 27.121 8.0158 26.9842C7.87906 26.8475 7.69359 26.7706 7.50021 26.7706H6.13521L7.89979 25.0046Z" fill="black"/>
</svg>
