<svg width="35" height="35" viewBox="0 0 35 35" fill="none" xmlns="http://www.w3.org/2000/svg">
<path d="M13.7156 23.7781H15.2688L25.2438 13.8031L23.6906 12.25L14.5031 21.4594L10.3031 17.2594L8.75 18.8125L13.7156 23.7781Z" fill="black"/>
<path fill-rule="evenodd" clip-rule="evenodd" d="M18.8125 2.18748C22.3125 2.40623 25.5937 4.15623 28 6.56248C30.8437 9.62497 32.375 13.3437 32.375 17.7187C32.375 21.2187 31.0625 24.5 28.875 27.3437C26.6875 29.9687 23.625 31.9375 20.125 32.5937C16.625 33.25 13.125 32.8125 10.0625 31.0625C6.99999 29.3125 4.59374 26.6875 3.28124 23.4062C1.96874 20.125 1.74999 16.4062 2.84374 13.125C3.93749 9.62497 5.90624 6.78123 8.96874 4.81248C11.8125 2.84373 15.3125 1.96873 18.8125 2.18748ZM19.9062 30.4062C22.75 29.75 25.375 28.2187 27.3437 25.8125C29.0937 23.4062 30.1875 20.5625 29.9687 17.5C29.9687 14 28.6562 10.5 26.25 8.09373C24.0625 5.90623 21.4375 4.59373 18.375 4.37498C15.5312 4.15623 12.4687 4.81248 10.0625 6.56248C7.65624 8.31248 5.90624 10.7187 5.03124 13.7812C4.15624 16.625 4.15624 19.6875 5.46874 22.5312C6.78124 25.375 8.74999 27.5625 11.375 29.0937C14 30.625 17.0625 31.0625 19.9062 30.4062Z" fill="black"/>
</svg>
