<svg width="35" height="35" viewBox="0 0 35 35" fill="none" xmlns="http://www.w3.org/2000/svg">
<path d="M5.10417 5.46877C5.10417 5.37208 5.14258 5.27934 5.21095 5.21097C5.27932 5.1426 5.37206 5.10419 5.46875 5.10419H25.1563C25.2529 5.10419 25.3457 5.1426 25.4141 5.21097C25.4824 5.27934 25.5208 5.37208 25.5208 5.46877V20.0521C25.5208 20.3422 25.6361 20.6204 25.8412 20.8255C26.0463 21.0306 26.3245 21.1459 26.6146 21.1459C26.9047 21.1459 27.1829 21.0306 27.388 20.8255C27.5931 20.6204 27.7083 20.3422 27.7083 20.0521V5.46877C27.7083 4.79192 27.4395 4.14278 26.9608 3.66418C26.4822 3.18557 25.8331 2.91669 25.1563 2.91669H5.46875C4.7919 2.91669 4.14276 3.18557 3.66416 3.66418C3.18555 4.14278 2.91667 4.79192 2.91667 5.46877V29.5313C2.91667 30.94 4.06 32.0834 5.46875 32.0834H15.6771C15.9672 32.0834 16.2454 31.9681 16.4505 31.763C16.6556 31.5579 16.7708 31.2797 16.7708 30.9896C16.7708 30.6995 16.6556 30.4213 16.4505 30.2162C16.2454 30.0111 15.9672 29.8959 15.6771 29.8959H5.46875C5.37206 29.8959 5.27932 29.8574 5.21095 29.7891C5.14258 29.7207 5.10417 29.628 5.10417 29.5313V5.46877Z" fill="black"/>
<path d="M9.11458 10.2083C8.8245 10.2083 8.5463 10.3235 8.34118 10.5287C8.13607 10.7338 8.02083 11.012 8.02083 11.3021C8.02083 11.5921 8.13607 11.8703 8.34118 12.0755C8.5463 12.2806 8.8245 12.3958 9.11458 12.3958H21.5104C21.8005 12.3958 22.0787 12.2806 22.2838 12.0755C22.4889 11.8703 22.6042 11.5921 22.6042 11.3021C22.6042 11.012 22.4889 10.7338 22.2838 10.5287C22.0787 10.3235 21.8005 10.2083 21.5104 10.2083H9.11458ZM8.02083 17.1354C8.02083 16.8453 8.13607 16.5671 8.34118 16.362C8.5463 16.1569 8.8245 16.0416 9.11458 16.0416H15.6771C15.9672 16.0416 16.2454 16.1569 16.4505 16.362C16.6556 16.5671 16.7708 16.8453 16.7708 17.1354C16.7708 17.4255 16.6556 17.7037 16.4505 17.9088C16.2454 18.1139 15.9672 18.2291 15.6771 18.2291H9.11458C8.8245 18.2291 8.5463 18.1139 8.34118 17.9088C8.13607 17.7037 8.02083 17.4255 8.02083 17.1354ZM31.7625 23.7416C31.87 23.6415 31.9562 23.5208 32.0159 23.3866C32.0757 23.2524 32.1079 23.1076 32.1104 22.9607C32.113 22.8139 32.086 22.668 32.031 22.5318C31.976 22.3956 31.8941 22.2719 31.7903 22.168C31.6864 22.0642 31.5627 21.9823 31.4265 21.9273C31.2903 21.8723 31.1444 21.8453 30.9976 21.8479C30.8507 21.8505 30.7059 21.8826 30.5717 21.9424C30.4375 22.0022 30.3168 22.0884 30.2167 22.1958L22.9687 29.4437L20.0958 26.5708C19.9957 26.4634 19.8749 26.3772 19.7408 26.3174C19.6066 26.2576 19.4618 26.2255 19.3149 26.2229C19.1681 26.2203 19.0222 26.2473 18.886 26.3023C18.7498 26.3573 18.6261 26.4392 18.5222 26.543C18.4184 26.6469 18.3365 26.7706 18.2815 26.9068C18.2265 27.043 18.1995 27.1889 18.2021 27.3357C18.2046 27.4826 18.2368 27.6274 18.2966 27.7616C18.3563 27.8958 18.4425 28.0165 18.55 28.1166L22.1958 31.7625C22.4009 31.9673 22.6789 32.0824 22.9687 32.0824C23.2586 32.0824 23.5366 31.9673 23.7417 31.7625L31.7625 23.7416Z" fill="black"/>
</svg>
